<svg width="274.727" height="28.477" viewBox="0 0 274.727 28.477" xmlns="http://www.w3.org/2000/svg"><g id="svgGroup" stroke-linecap="round" fill-rule="evenodd" font-size="9pt" stroke="#bb91ccf9" stroke-width="0.25mm" fill="#703696" style="stroke:#bb91ccf9;stroke-width:0.25mm;fill:#703696"><path d="M 60.84 22.207 L 61.035 25.02 A 3.188 3.188 0 0 1 60.9 25.974 A 2.419 2.419 0 0 1 59.941 27.266 A 2.538 2.538 0 0 1 59.153 27.624 Q 58.81 27.718 58.404 27.744 A 5.078 5.078 0 0 1 58.076 27.754 Q 56.985 27.754 56.591 27.547 A 0.695 0.695 0 0 1 56.543 27.52 A 1.146 1.146 0 0 1 56.097 26.998 Q 55.911 26.591 55.899 25.948 A 4.822 4.822 0 0 1 55.898 25.86 A 1.119 1.119 0 0 1 55.912 25.721 Q 55.97 25.308 56.279 23.936 A 10.698 10.698 0 0 0 56.446 22.958 Q 56.59 21.838 56.637 20.178 A 61.798 61.798 0 0 0 56.66 18.428 Q 56.66 14.61 56.094 13.565 A 1.9 1.9 0 0 0 54.715 12.573 A 3.109 3.109 0 0 0 54.121 12.52 A 3.653 3.653 0 0 0 51.631 13.477 A 6.88 6.88 0 0 0 50.693 14.478 A 5.41 5.41 0 0 0 50.049 15.567 A 4.389 4.389 0 0 0 49.837 16.212 Q 49.467 17.631 49.17 20.957 Q 48.832 24.74 48.67 25.655 A 2.782 2.782 0 0 1 48.633 25.84 A 1.453 1.453 0 0 1 48.343 26.429 Q 47.933 26.914 47.061 26.914 A 3.401 3.401 0 0 1 46.428 26.86 Q 46.081 26.794 45.819 26.648 A 1.438 1.438 0 0 1 45.283 26.143 Q 44.805 25.371 44.805 24.258 L 44.902 23.574 L 45.273 22.227 A 8.375 8.375 0 0 0 45.441 21.347 Q 45.504 20.893 45.532 20.385 A 14.488 14.488 0 0 0 45.547 20.039 Q 45.84 12.285 45.996 11.192 A 1.44 1.44 0 0 1 46.163 10.675 Q 46.487 10.11 47.364 10.098 A 2.8 2.8 0 0 1 47.402 10.098 L 50.313 10.586 A 4.239 4.239 0 0 0 50.989 10.526 Q 51.687 10.413 52.604 10.084 A 15.275 15.275 0 0 0 52.754 10.029 Q 54.258 9.473 55.84 9.473 A 5.971 5.971 0 0 1 57.66 9.769 Q 58.372 9.997 59.108 10.398 A 9.92 9.92 0 0 1 59.131 10.41 Q 60.808 11.331 60.99 11.348 A 0.068 0.068 0 0 0 60.996 11.348 Q 61.133 11.348 62.641 10.617 A 114.498 114.498 0 0 0 63.105 10.391 A 11.266 11.266 0 0 1 64.488 9.817 Q 65.636 9.434 66.631 9.434 A 6.243 6.243 0 0 1 67.733 9.526 Q 68.374 9.641 68.895 9.9 A 3.591 3.591 0 0 1 69.229 10.088 A 5.302 5.302 0 0 1 70.123 10.797 A 4.167 4.167 0 0 1 70.781 11.641 A 4.553 4.553 0 0 1 71.193 12.677 Q 71.701 14.477 71.767 18.137 A 63.093 63.093 0 0 1 71.777 19.278 Q 71.777 21.934 71.826 22.315 A 4.955 4.955 0 0 0 71.86 22.533 Q 71.913 22.837 72.025 23.337 A 43.064 43.064 0 0 0 72.1 23.662 Q 72.319 24.608 72.324 25.217 A 3.443 3.443 0 0 1 72.324 25.244 A 1.693 1.693 0 0 1 72.197 25.872 Q 72.07 26.192 71.816 26.524 A 1.687 1.687 0 0 1 71.257 27.006 Q 70.908 27.188 70.469 27.188 A 3.058 3.058 0 0 1 69.745 27.109 Q 68.785 26.875 68.523 25.944 A 2.269 2.269 0 0 1 68.496 25.84 Q 68.277 24.926 67.989 20.73 A 245.122 245.122 0 0 1 67.949 20.137 Q 67.656 15.41 67.305 14.59 A 2.573 2.573 0 0 0 65.484 13.009 Q 64.996 12.88 64.397 12.872 A 5.967 5.967 0 0 0 64.316 12.871 A 2.094 2.094 0 0 0 62.696 13.634 Q 62.323 14.055 62.031 14.707 A 11.048 11.048 0 0 0 61.356 16.77 Q 60.874 18.858 60.842 21.786 A 38.527 38.527 0 0 0 60.84 22.207 Z M 203.516 28.106 L 198.594 28.106 Q 194.281 28.106 192.569 27.912 A 6.551 6.551 0 0 1 191.875 27.803 A 2.611 2.611 0 0 1 191.325 27.618 Q 190.547 27.244 190.547 26.406 A 2.603 2.603 0 0 1 190.646 25.744 Q 190.919 24.721 191.942 23.084 A 23.375 23.375 0 0 1 191.953 23.067 A 111.575 111.575 0 0 1 194.082 19.815 Q 196.353 16.465 199.531 12.178 A 198.688 198.688 0 0 0 200.667 10.632 Q 203.586 6.613 204.207 5.25 A 1.514 1.514 0 0 0 204.375 4.707 Q 204.375 4.161 203.929 3.916 A 1.169 1.169 0 0 0 203.828 3.867 Q 203.269 3.636 200.504 3.633 A 67.188 67.188 0 0 0 200.43 3.633 A 20.339 20.339 0 0 0 198.135 3.756 Q 196.972 3.888 195.971 4.163 A 11.503 11.503 0 0 0 195.518 4.297 Q 193.456 4.955 193.227 4.961 A 0.156 0.156 0 0 1 193.223 4.961 A 2.119 2.119 0 0 1 192.659 4.893 Q 191.777 4.649 191.777 3.535 A 6.234 6.234 0 0 1 191.799 2.992 Q 191.865 2.241 192.129 1.875 A 1.9 1.9 0 0 1 192.467 1.539 Q 192.835 1.247 193.438 0.996 A 2.733 2.733 0 0 1 193.986 0.854 Q 195.343 0.614 199.105 0.606 A 123.795 123.795 0 0 1 199.375 0.606 L 201.504 0.606 A 194.224 194.224 0 0 1 203.812 0.618 Q 207.583 0.663 208.857 0.869 A 4.871 4.871 0 0 1 209.432 0.995 Q 210.023 1.166 210.283 1.458 A 0.778 0.778 0 0 1 210.488 1.992 Q 210.488 3.257 208.86 5.859 A 27.835 27.835 0 0 1 208.848 5.879 A 58.168 58.168 0 0 1 207.882 7.358 Q 205.985 10.185 201.992 15.703 A 231.678 231.678 0 0 0 200.77 17.408 Q 196.778 23.031 196.777 23.887 Q 196.777 24.57 197.275 24.834 A 1.214 1.214 0 0 0 197.571 24.93 Q 198.307 25.092 200.379 25.098 A 55.591 55.591 0 0 0 200.527 25.098 Q 202.797 25.098 204.185 24.905 A 10.305 10.305 0 0 0 204.736 24.815 A 17.737 17.737 0 0 0 206.64 24.338 A 15.181 15.181 0 0 0 207.441 24.063 A 11.097 11.097 0 0 1 208.104 23.836 Q 208.767 23.634 209.248 23.601 A 2.657 2.657 0 0 1 209.434 23.594 A 0.798 0.798 0 0 1 210.194 24.05 Q 210.371 24.389 210.389 24.983 A 4.53 4.53 0 0 1 210.391 25.117 A 2.351 2.351 0 0 1 209.474 26.997 A 4.161 4.161 0 0 1 208.691 27.5 Q 207.65 28.029 204.477 28.096 A 45.768 45.768 0 0 1 203.516 28.106 Z M 216.289 4.863 L 216.289 2.559 L 216.172 0.918 Q 216.172 0.068 217.622 0.005 A 5.56 5.56 0 0 1 217.861 0 A 3.325 3.325 0 0 1 218.675 0.093 Q 219.275 0.244 219.65 0.644 A 2.036 2.036 0 0 1 220.059 1.309 Q 220.313 1.973 220.313 5.645 A 142.701 142.701 0 0 0 220.318 6.91 Q 220.337 9.068 220.428 9.672 A 1.248 1.248 0 0 0 220.459 9.824 A 0.673 0.673 0 0 0 220.644 10.139 Q 220.852 10.332 221.25 10.332 A 0.25 0.25 0 0 0 221.298 10.324 Q 221.45 10.289 221.992 10.098 L 222.422 9.942 A 14.923 14.923 0 0 1 223.792 9.475 Q 225.035 9.121 226.035 9.121 Q 229.238 9.121 230.586 11.621 Q 231.484 13.281 231.484 18.848 A 275.978 275.978 0 0 0 231.486 19.754 Q 231.491 21.317 231.515 21.823 A 4.285 4.285 0 0 0 231.523 21.953 A 7.321 7.321 0 0 0 231.553 22.236 Q 231.615 22.751 231.777 23.721 Q 231.992 25 231.992 25.137 Q 231.992 25.858 231.79 26.345 A 1.663 1.663 0 0 1 231.475 26.846 A 1.438 1.438 0 0 1 230.971 27.185 Q 230.516 27.377 229.812 27.4 A 6.007 6.007 0 0 1 229.619 27.403 A 3.361 3.361 0 0 1 229.008 27.351 Q 228.179 27.197 227.871 26.582 A 1.125 1.125 0 0 1 227.79 26.329 Q 227.689 25.87 227.664 24.837 A 30.765 30.765 0 0 1 227.656 24.102 L 227.598 20.664 L 227.656 17.559 A 13.341 13.341 0 0 0 227.549 15.787 Q 227.289 13.857 226.397 13.009 A 2.489 2.489 0 0 0 224.609 12.344 Q 221.914 12.344 220.762 14.61 A 7.262 7.262 0 0 0 220.232 16.08 Q 219.637 18.391 219.611 22.612 A 63.281 63.281 0 0 0 219.609 23.008 L 219.668 25.137 Q 219.668 26.231 218.984 26.983 A 2.216 2.216 0 0 1 217.835 27.646 Q 217.473 27.733 217.045 27.735 A 4.289 4.289 0 0 1 217.031 27.735 A 4.796 4.796 0 0 1 216.219 27.672 Q 214.769 27.421 214.728 26.168 A 2.258 2.258 0 0 1 214.727 26.094 Q 214.727 25.352 215.088 23.887 A 21.61 21.61 0 0 0 215.388 22.478 A 16.207 16.207 0 0 0 215.566 21.182 Q 215.667 20.122 215.902 15.009 A 1243.201 1243.201 0 0 0 215.986 13.145 Q 216.27 6.785 216.288 5.076 A 20.127 20.127 0 0 0 216.289 4.863 Z M 127.598 24.961 L 127.539 23.711 A 61.937 61.937 0 0 1 127.402 19.59 A 40.742 40.742 0 0 0 127.36 17.655 Q 127.228 14.899 126.687 13.702 A 3.155 3.155 0 0 0 126.631 13.584 Q 125.97 12.272 124.544 12.083 A 3.816 3.816 0 0 0 124.043 12.051 Q 122.832 12.051 121.807 12.774 Q 120.781 13.496 120.234 14.785 A 9.272 9.272 0 0 0 119.739 16.383 Q 119.131 19.071 119.103 24.05 A 86.364 86.364 0 0 0 119.102 24.531 A 6.81 6.81 0 0 1 119.063 25.282 Q 118.971 26.11 118.658 26.595 A 1.617 1.617 0 0 1 118.486 26.817 Q 117.871 27.481 116.914 27.481 L 116.523 27.481 Q 114.525 27.481 114.352 26.03 A 2.432 2.432 0 0 1 114.336 25.742 L 114.336 25.274 Q 114.336 25.059 114.57 24.336 L 114.883 23.438 A 6.726 6.726 0 0 0 115.065 22.573 Q 115.352 20.719 115.352 16.66 L 115.449 10.86 A 1.462 1.462 0 0 1 115.515 10.402 Q 115.731 9.746 116.66 9.746 A 3.889 3.889 0 0 1 118.274 10.108 A 5.221 5.221 0 0 1 119.053 10.547 Q 120.234 11.348 120.557 11.348 A 0.794 0.794 0 0 0 120.742 11.321 Q 121.023 11.252 121.504 11.003 A 9.9 9.9 0 0 0 121.699 10.899 A 19.719 19.719 0 0 1 123.123 10.189 Q 124.907 9.395 126.113 9.395 L 126.621 9.395 A 5.1 5.1 0 0 1 128.39 9.685 Q 130.007 10.279 130.82 12.09 A 3.928 3.928 0 0 1 131.063 12.846 Q 131.35 14.097 131.397 16.546 A 52.566 52.566 0 0 1 131.406 17.559 L 131.406 17.695 A 12.673 12.673 0 0 1 131.387 18.399 L 131.387 19.395 L 131.387 20.117 L 131.387 20.645 A 36.656 36.656 0 0 0 131.392 21.297 Q 131.41 22.277 131.484 22.695 A 7.884 7.884 0 0 0 131.724 23.646 A 9.606 9.606 0 0 0 131.934 24.238 A 6.421 6.421 0 0 1 132.123 24.815 Q 132.203 25.11 132.238 25.372 A 2.938 2.938 0 0 1 132.266 25.762 A 1.192 1.192 0 0 1 131.533 26.9 Q 130.993 27.165 130.054 27.201 A 7.983 7.983 0 0 1 129.746 27.207 Q 128.494 27.207 127.965 26.68 A 1.229 1.229 0 0 1 127.832 26.524 A 0.797 0.797 0 0 1 127.732 26.31 Q 127.615 25.948 127.6 25.196 A 11.569 11.569 0 0 1 127.598 24.961 Z M 150.039 24.961 L 149.98 23.711 A 61.937 61.937 0 0 1 149.844 19.59 A 40.742 40.742 0 0 0 149.801 17.655 Q 149.67 14.899 149.129 13.702 A 3.155 3.155 0 0 0 149.072 13.584 Q 148.412 12.272 146.986 12.083 A 3.816 3.816 0 0 0 146.484 12.051 Q 145.273 12.051 144.248 12.774 Q 143.223 13.496 142.676 14.785 A 9.272 9.272 0 0 0 142.18 16.383 Q 141.572 19.071 141.544 24.05 A 86.364 86.364 0 0 0 141.543 24.531 A 6.81 6.81 0 0 1 141.505 25.282 Q 141.412 26.11 141.099 26.595 A 1.617 1.617 0 0 1 140.928 26.817 Q 140.313 27.481 139.355 27.481 L 138.965 27.481 Q 136.967 27.481 136.794 26.03 A 2.432 2.432 0 0 1 136.777 25.742 L 136.777 25.274 Q 136.777 25.059 137.012 24.336 L 137.324 23.438 A 6.726 6.726 0 0 0 137.507 22.573 Q 137.793 20.719 137.793 16.66 L 137.891 10.86 A 1.462 1.462 0 0 1 137.956 10.402 Q 138.172 9.746 139.102 9.746 A 3.889 3.889 0 0 1 140.716 10.108 A 5.221 5.221 0 0 1 141.494 10.547 Q 142.676 11.348 142.998 11.348 A 0.794 0.794 0 0 0 143.183 11.321 Q 143.464 11.252 143.946 11.003 A 9.9 9.9 0 0 0 144.141 10.899 A 19.719 19.719 0 0 1 145.565 10.189 Q 147.348 9.395 148.555 9.395 L 149.063 9.395 A 5.1 5.1 0 0 1 150.832 9.685 Q 152.448 10.279 153.262 12.09 A 3.928 3.928 0 0 1 153.504 12.846 Q 153.791 14.097 153.838 16.546 A 52.566 52.566 0 0 1 153.848 17.559 L 153.848 17.695 A 12.673 12.673 0 0 1 153.828 18.399 L 153.828 19.395 L 153.828 20.117 L 153.828 20.645 A 36.656 36.656 0 0 0 153.833 21.297 Q 153.851 22.277 153.926 22.695 A 7.884 7.884 0 0 0 154.165 23.646 A 9.606 9.606 0 0 0 154.375 24.238 A 6.421 6.421 0 0 1 154.564 24.815 Q 154.644 25.11 154.68 25.372 A 2.938 2.938 0 0 1 154.707 25.762 A 1.192 1.192 0 0 1 153.975 26.9 Q 153.434 27.165 152.495 27.201 A 7.983 7.983 0 0 1 152.187 27.207 Q 150.936 27.207 150.407 26.68 A 1.229 1.229 0 0 1 150.273 26.524 A 0.797 0.797 0 0 1 150.174 26.31 Q 150.057 25.948 150.041 25.196 A 11.569 11.569 0 0 1 150.039 24.961 Z M 99.629 0.664 L 100.078 0.664 A 2.012 2.012 0 0 1 101.345 1.145 Q 102.056 1.708 102.689 2.933 A 12.11 12.11 0 0 1 103.047 3.692 A 46.19 46.19 0 0 1 104.198 6.632 Q 105.41 10.03 106.78 15.057 A 242.349 242.349 0 0 1 108.105 20.156 Q 108.477 21.602 109.209 23.047 Q 109.786 24.185 109.908 24.669 A 0.911 0.911 0 0 1 109.941 24.883 A 2.859 2.859 0 0 1 109.199 26.836 A 2.671 2.671 0 0 1 108.564 27.372 A 2.16 2.16 0 0 1 107.441 27.676 L 107.012 27.676 Q 105.313 27.676 104.883 26.602 Q 104.805 26.426 104.717 25.596 A 15.702 15.702 0 0 0 104.58 24.6 A 13.084 13.084 0 0 0 104.473 24.043 Q 104.045 22.056 103.455 21.044 A 3.311 3.311 0 0 0 103.115 20.557 Q 102.399 19.72 99.386 19.622 A 25.813 25.813 0 0 0 98.555 19.61 Q 95.293 19.61 94.196 20.26 A 1.502 1.502 0 0 0 93.916 20.469 A 3.703 3.703 0 0 0 93.439 21.052 Q 92.773 22.034 92.07 23.985 A 9.69 9.69 0 0 0 91.76 25.05 A 12.114 12.114 0 0 0 91.611 25.801 A 12.877 12.877 0 0 1 91.538 26.203 Q 91.424 26.773 91.306 27.021 A 0.822 0.822 0 0 1 91.27 27.09 A 1.042 1.042 0 0 1 90.79 27.492 Q 90.43 27.651 89.869 27.656 A 4.082 4.082 0 0 1 89.834 27.656 A 2.554 2.554 0 0 1 89.04 27.539 A 2.065 2.065 0 0 1 88.105 26.914 Q 87.461 26.172 87.461 25.166 A 2.551 2.551 0 0 1 87.586 24.409 Q 87.795 23.74 88.35 22.934 A 9.704 9.704 0 0 1 88.477 22.754 A 7.349 7.349 0 0 0 88.953 21.944 Q 90.028 19.888 92.207 14.16 Q 96.504 2.832 97.988 1.426 A 3.597 3.597 0 0 1 98.52 1.012 Q 98.849 0.806 99.177 0.722 A 1.817 1.817 0 0 1 99.629 0.664 Z M 31.074 8.379 L 32.051 8.379 A 9.033 9.033 0 0 1 33.852 8.551 A 6.988 6.988 0 0 1 35.527 9.112 Q 37.031 9.844 37.822 11.094 Q 38.613 12.344 38.789 14.356 A 4.11 4.11 0 0 1 38.798 14.529 Q 38.826 15.283 38.828 18.459 A 790.508 790.508 0 0 1 38.828 18.906 Q 38.828 22.988 38.936 23.604 A 2.857 2.857 0 0 0 39.058 24.058 Q 39.221 24.521 39.561 25.098 Q 40.019 25.877 40.071 26.411 A 1.365 1.365 0 0 1 40.078 26.543 A 1.095 1.095 0 0 1 39.763 27.313 A 1.672 1.672 0 0 1 39.541 27.51 Q 39.142 27.808 38.478 27.884 A 4.292 4.292 0 0 1 37.988 27.91 A 4.812 4.812 0 0 1 36.929 27.786 Q 36.377 27.661 35.781 27.412 A 12.481 12.481 0 0 0 35.23 27.196 Q 34.725 27.013 34.375 26.949 A 1.873 1.873 0 0 0 34.043 26.914 A 0.249 0.249 0 0 0 34 26.925 Q 33.784 26.99 32.543 27.442 A 333.095 333.095 0 0 0 32.09 27.608 A 14.788 14.788 0 0 1 30.883 27.995 Q 29.756 28.301 28.887 28.301 L 28.457 28.301 A 5.728 5.728 0 0 1 26.375 27.932 A 5.252 5.252 0 0 1 24.736 26.914 A 4.505 4.505 0 0 1 23.368 24.522 A 6.884 6.884 0 0 1 23.203 22.969 A 6.265 6.265 0 0 1 23.42 21.275 A 4.585 4.585 0 0 1 24.883 18.975 A 8.855 8.855 0 0 1 27.948 17.286 A 10.879 10.879 0 0 1 28.965 17.012 Q 29.63 16.868 31.107 16.641 A 115.921 115.921 0 0 1 31.367 16.602 A 25.321 25.321 0 0 0 32.118 16.478 Q 33.194 16.282 33.652 16.074 Q 34.707 15.586 34.707 14.229 A 3.292 3.292 0 0 0 34.583 13.302 A 2.464 2.464 0 0 0 33.809 12.1 A 3.175 3.175 0 0 0 31.67 11.328 Q 30.55 11.328 28.8 12.077 A 17.679 17.679 0 0 0 28.418 12.246 A 34.306 34.306 0 0 1 27.715 12.558 Q 26.668 13.008 26.153 13.124 A 1.393 1.393 0 0 1 25.859 13.164 A 1.433 1.433 0 0 1 25.272 13.053 Q 24.661 12.78 24.568 11.845 A 3.629 3.629 0 0 1 24.551 11.485 Q 24.551 10.235 26.67 9.307 Q 28.789 8.379 31.074 8.379 Z M 166.328 8.379 L 167.305 8.379 A 9.033 9.033 0 0 1 169.106 8.551 A 6.988 6.988 0 0 1 170.781 9.112 Q 172.285 9.844 173.076 11.094 Q 173.867 12.344 174.043 14.356 A 4.11 4.11 0 0 1 174.052 14.529 Q 174.08 15.283 174.082 18.459 A 790.508 790.508 0 0 1 174.082 18.906 Q 174.082 22.988 174.189 23.604 A 2.857 2.857 0 0 0 174.312 24.058 Q 174.475 24.521 174.814 25.098 Q 175.273 25.877 175.325 26.411 A 1.365 1.365 0 0 1 175.332 26.543 A 1.095 1.095 0 0 1 175.017 27.313 A 1.672 1.672 0 0 1 174.795 27.51 Q 174.395 27.808 173.731 27.884 A 4.292 4.292 0 0 1 173.242 27.91 A 4.812 4.812 0 0 1 172.183 27.786 Q 171.631 27.661 171.035 27.412 A 12.481 12.481 0 0 0 170.484 27.196 Q 169.979 27.013 169.628 26.949 A 1.873 1.873 0 0 0 169.297 26.914 A 0.249 0.249 0 0 0 169.254 26.925 Q 169.038 26.99 167.797 27.442 A 333.095 333.095 0 0 0 167.344 27.608 A 14.788 14.788 0 0 1 166.137 27.995 Q 165.01 28.301 164.141 28.301 L 163.711 28.301 A 5.728 5.728 0 0 1 161.629 27.932 A 5.252 5.252 0 0 1 159.99 26.914 A 4.505 4.505 0 0 1 158.622 24.522 A 6.884 6.884 0 0 1 158.457 22.969 A 6.265 6.265 0 0 1 158.674 21.275 A 4.585 4.585 0 0 1 160.137 18.975 A 8.855 8.855 0 0 1 163.202 17.286 A 10.879 10.879 0 0 1 164.219 17.012 Q 164.884 16.868 166.361 16.641 A 115.921 115.921 0 0 1 166.621 16.602 A 25.321 25.321 0 0 0 167.372 16.478 Q 168.447 16.282 168.906 16.074 Q 169.961 15.586 169.961 14.229 A 3.292 3.292 0 0 0 169.837 13.302 A 2.464 2.464 0 0 0 169.063 12.1 A 3.175 3.175 0 0 0 166.924 11.328 Q 165.803 11.328 164.054 12.077 A 17.679 17.679 0 0 0 163.672 12.246 A 34.306 34.306 0 0 1 162.969 12.558 Q 161.922 13.008 161.407 13.124 A 1.393 1.393 0 0 1 161.113 13.164 A 1.433 1.433 0 0 1 160.526 13.053 Q 159.915 12.78 159.822 11.845 A 3.629 3.629 0 0 1 159.805 11.485 Q 159.805 10.235 161.924 9.307 Q 164.043 8.379 166.328 8.379 Z M 244.063 8.379 L 245.039 8.379 A 9.033 9.033 0 0 1 246.84 8.551 A 6.988 6.988 0 0 1 248.516 9.112 Q 250.02 9.844 250.811 11.094 Q 251.602 12.344 251.777 14.356 A 4.11 4.11 0 0 1 251.786 14.529 Q 251.814 15.283 251.816 18.459 A 790.508 790.508 0 0 1 251.816 18.906 Q 251.816 22.988 251.924 23.604 A 2.857 2.857 0 0 0 252.046 24.058 Q 252.209 24.521 252.549 25.098 Q 253.008 25.877 253.06 26.411 A 1.365 1.365 0 0 1 253.066 26.543 A 1.095 1.095 0 0 1 252.752 27.313 A 1.672 1.672 0 0 1 252.529 27.51 Q 252.13 27.808 251.466 27.884 A 4.292 4.292 0 0 1 250.977 27.91 A 4.812 4.812 0 0 1 249.917 27.786 Q 249.365 27.661 248.77 27.412 A 12.481 12.481 0 0 0 248.218 27.196 Q 247.713 27.013 247.363 26.949 A 1.873 1.873 0 0 0 247.031 26.914 A 0.249 0.249 0 0 0 246.988 26.925 Q 246.773 26.99 245.532 27.442 A 333.095 333.095 0 0 0 245.078 27.608 A 14.788 14.788 0 0 1 243.871 27.995 Q 242.744 28.301 241.875 28.301 L 241.445 28.301 A 5.728 5.728 0 0 1 239.363 27.932 A 5.252 5.252 0 0 1 237.725 26.914 A 4.505 4.505 0 0 1 236.356 24.522 A 6.884 6.884 0 0 1 236.191 22.969 A 6.265 6.265 0 0 1 236.408 21.275 A 4.585 4.585 0 0 1 237.871 18.975 A 8.855 8.855 0 0 1 240.937 17.286 A 10.879 10.879 0 0 1 241.953 17.012 Q 242.619 16.868 244.096 16.641 A 115.921 115.921 0 0 1 244.355 16.602 A 25.321 25.321 0 0 0 245.106 16.478 Q 246.182 16.282 246.641 16.074 Q 247.695 15.586 247.695 14.229 A 3.292 3.292 0 0 0 247.572 13.302 A 2.464 2.464 0 0 0 246.797 12.1 A 3.175 3.175 0 0 0 244.658 11.328 Q 243.538 11.328 241.788 12.077 A 17.679 17.679 0 0 0 241.406 12.246 A 34.306 34.306 0 0 1 240.703 12.558 Q 239.656 13.008 239.141 13.124 A 1.393 1.393 0 0 1 238.848 13.164 A 1.433 1.433 0 0 1 238.26 13.053 Q 237.649 12.78 237.556 11.845 A 3.629 3.629 0 0 1 237.539 11.485 Q 237.539 10.235 239.658 9.307 Q 241.777 8.379 244.063 8.379 Z M 4.668 28.028 L 3.555 28.028 Q 1.855 28.028 0.928 27.598 A 2.786 2.786 0 0 1 0.544 27.385 Q 0.357 27.259 0.234 27.119 A 0.87 0.87 0 0 1 0 26.533 Q 0 25.899 0.742 24.737 A 6.803 6.803 0 0 0 1.719 22.149 Q 2.132 19.667 2.209 16.395 A 65.358 65.358 0 0 0 2.227 14.863 A 1.092 1.092 0 0 1 2.227 14.841 Q 2.234 14.7 2.285 13.692 L 2.363 12.168 L 2.422 9.512 Q 2.422 6.426 2.227 5.615 Q 2.031 4.805 1.514 3.975 A 5.924 5.924 0 0 1 1.287 3.581 Q 0.996 3.023 0.996 2.656 Q 0.996 0.703 5.137 0.703 L 5.879 0.703 A 5.153 5.153 0 0 1 6.595 0.75 Q 7.326 0.853 7.803 1.182 Q 8.437 1.62 8.491 2.082 A 0.743 0.743 0 0 1 8.496 2.168 L 8.496 2.461 Q 8.496 2.733 7.908 3.737 A 19.93 19.93 0 0 1 7.9 3.75 Q 7.393 4.615 7.205 5.381 A 4.116 4.116 0 0 0 7.148 5.645 A 30.723 30.723 0 0 0 6.819 8.058 Q 6.565 10.59 6.529 14.07 A 113.526 113.526 0 0 0 6.523 15.235 L 6.387 17.949 Q 6.367 18.34 6.367 18.711 L 6.309 19.863 L 6.27 21.348 A 25.899 25.899 0 0 0 6.28 22.124 Q 6.319 23.399 6.494 23.887 Q 6.719 24.512 7.07 25.137 A 2.632 2.632 0 0 1 7.422 26.445 A 1.066 1.066 0 0 1 7.108 27.198 Q 6.966 27.347 6.762 27.478 A 2.665 2.665 0 0 1 6.592 27.578 Q 5.762 28.028 4.668 28.028 Z M 265.43 28.477 L 264.805 28.477 A 7.975 7.975 0 0 1 262.057 28.021 A 6.969 6.969 0 0 1 259.238 26.094 A 7.779 7.779 0 0 1 257.594 23.107 Q 257.232 21.92 257.13 20.491 A 16.241 16.241 0 0 1 257.09 19.336 L 257.109 19.004 A 14.734 14.734 0 0 1 257.409 15.941 Q 257.838 13.922 258.881 12.395 A 8.669 8.669 0 0 1 259.648 11.426 A 8.528 8.528 0 0 1 261.754 9.719 A 7.874 7.874 0 0 1 262.686 9.268 A 9.999 9.999 0 0 1 264.328 8.753 A 7.603 7.603 0 0 1 265.938 8.574 L 266.895 8.574 A 7.519 7.519 0 0 1 270.195 9.336 A 7.559 7.559 0 0 1 274.441 14.783 A 12.811 12.811 0 0 1 274.727 17.578 L 274.727 17.891 A 13.83 13.83 0 0 1 274.233 21.372 A 15.756 15.756 0 0 1 274.082 21.895 A 9.878 9.878 0 0 1 272.547 24.95 A 8.586 8.586 0 0 1 269.277 27.559 A 10.227 10.227 0 0 1 267.269 28.261 A 8.142 8.142 0 0 1 265.43 28.477 Z M 261.016 18.594 L 261.016 19.863 A 9.223 9.223 0 0 0 261.202 21.766 Q 261.474 23.057 262.144 24.057 A 5.868 5.868 0 0 0 262.188 24.121 A 4.8 4.8 0 0 0 262.971 25.017 A 3.085 3.085 0 0 0 265.059 25.82 L 265.645 25.82 A 3.681 3.681 0 0 0 268.243 24.748 A 5.926 5.926 0 0 0 269.053 23.789 A 7.35 7.35 0 0 0 270.072 21.526 Q 270.331 20.569 270.412 19.441 A 14.841 14.841 0 0 0 270.449 18.379 L 270.449 17.09 A 9.835 9.835 0 0 0 270.289 15.26 Q 270.021 13.847 269.307 12.803 A 4.359 4.359 0 0 0 268.444 11.852 A 3.225 3.225 0 0 0 266.367 11.133 L 265.977 11.133 A 3.826 3.826 0 0 0 263.196 12.322 A 6.058 6.058 0 0 0 262.471 13.203 A 8.069 8.069 0 0 0 261.149 16.718 A 10.509 10.509 0 0 0 261.055 18.145 L 261.016 18.594 Z M 97.461 16.875 L 100.078 16.875 A 14.692 14.692 0 0 0 100.776 16.86 Q 102.376 16.783 102.491 16.324 A 0.302 0.302 0 0 0 102.5 16.25 L 102.5 16.113 A 1.146 1.146 0 0 0 102.48 15.954 Q 102.357 15.25 101.501 11.813 A 591.71 591.71 0 0 0 101.191 10.576 A 109.293 109.293 0 0 0 100.878 9.356 Q 99.827 5.371 99.434 5.371 L 99.355 5.371 A 0.056 0.056 0 0 0 99.335 5.395 Q 99.229 5.562 98.613 6.895 Q 95.124 14.38 94.986 16.243 A 1.955 1.955 0 0 0 94.98 16.387 L 94.98 16.504 A 0.211 0.211 0 0 0 95.098 16.691 Q 95.259 16.787 95.641 16.796 A 3.448 3.448 0 0 0 95.723 16.797 L 96.035 16.836 L 97.461 16.875 Z M 30.215 25.645 L 30.723 25.645 A 4.123 4.123 0 0 0 33.545 24.561 A 4.029 4.029 0 0 0 34.289 23.7 A 3.036 3.036 0 0 0 34.766 22.051 L 34.805 21.797 L 34.805 21.543 L 34.844 20.938 L 34.844 19.824 Q 34.844 18.925 34.117 18.74 A 1.727 1.727 0 0 0 33.691 18.692 L 32.813 18.692 L 32.676 18.711 L 31.914 18.77 A 14.672 14.672 0 0 1 31.66 18.804 Q 31.43 18.833 31.276 18.843 A 2.272 2.272 0 0 1 31.134 18.848 A 4.139 4.139 0 0 0 28.771 19.597 A 5.581 5.581 0 0 0 28.203 20.039 A 2.731 2.731 0 0 0 27.357 21.526 A 4.141 4.141 0 0 0 27.266 22.422 L 27.266 22.813 A 3.251 3.251 0 0 0 27.385 23.717 A 2.446 2.446 0 0 0 28.115 24.883 A 2.964 2.964 0 0 0 29.927 25.634 A 3.885 3.885 0 0 0 30.215 25.645 Z M 165.469 25.645 L 165.977 25.645 A 4.123 4.123 0 0 0 168.799 24.561 A 4.029 4.029 0 0 0 169.543 23.7 A 3.036 3.036 0 0 0 170.02 22.051 L 170.059 21.797 L 170.059 21.543 L 170.098 20.938 L 170.098 19.824 Q 170.098 18.925 169.371 18.74 A 1.727 1.727 0 0 0 168.945 18.692 L 168.066 18.692 L 167.93 18.711 L 167.168 18.77 A 14.672 14.672 0 0 1 166.914 18.804 Q 166.684 18.833 166.53 18.843 A 2.272 2.272 0 0 1 166.388 18.848 A 4.139 4.139 0 0 0 164.025 19.597 A 5.581 5.581 0 0 0 163.457 20.039 A 2.731 2.731 0 0 0 162.611 21.526 A 4.141 4.141 0 0 0 162.52 22.422 L 162.52 22.813 A 3.251 3.251 0 0 0 162.639 23.717 A 2.446 2.446 0 0 0 163.369 24.883 A 2.964 2.964 0 0 0 165.181 25.634 A 3.885 3.885 0 0 0 165.469 25.645 Z M 243.203 25.645 L 243.711 25.645 A 4.123 4.123 0 0 0 246.533 24.561 A 4.029 4.029 0 0 0 247.277 23.7 A 3.036 3.036 0 0 0 247.754 22.051 L 247.793 21.797 L 247.793 21.543 L 247.832 20.938 L 247.832 19.824 Q 247.832 18.925 247.105 18.74 A 1.727 1.727 0 0 0 246.68 18.692 L 245.801 18.692 L 245.664 18.711 L 244.902 18.77 A 14.672 14.672 0 0 1 244.648 18.804 Q 244.419 18.833 244.264 18.843 A 2.272 2.272 0 0 1 244.122 18.848 A 4.139 4.139 0 0 0 241.759 19.597 A 5.581 5.581 0 0 0 241.191 20.039 A 2.731 2.731 0 0 0 240.345 21.526 A 4.141 4.141 0 0 0 240.254 22.422 L 240.254 22.813 A 3.251 3.251 0 0 0 240.373 23.717 A 2.446 2.446 0 0 0 241.104 24.883 A 2.964 2.964 0 0 0 242.916 25.634 A 3.885 3.885 0 0 0 243.203 25.645 Z" vector-effect="non-scaling-stroke"/></g></svg>