<?xml version="1.0" standalone="no"?>
<!DOCTYPE svg PUBLIC "-//W3C//DTD SVG 20010904//EN"
 "http://www.w3.org/TR/2001/REC-SVG-20010904/DTD/svg10.dtd">
<svg version="1.0" xmlns="http://www.w3.org/2000/svg"
 width="1275.000000pt" height="1651.000000pt" viewBox="0 0 1275.000000 1651.000000"
 preserveAspectRatio="xMidYMid meet">
<metadata>
Created by potrace 1.16, written by Peter Selinger 2001-2019
</metadata>
<g transform="translate(0.000000,1651.000000) scale(0.100000,-0.100000)"
fill="#000000" stroke="none">
<path d="M1472 15303 c14 -3 18 -18 20 -71 3 -67 3 -67 33 -69 27 -2 28 -2 8
7 -21 8 -23 16 -23 75 0 65 0 65 -27 64 -17 -1 -21 -3 -11 -6z"/>
<path d="M1593 15303 c13 -4 17 -15 17 -58 0 -71 7 -85 39 -84 25 0 25 0 4 9
-21 8 -23 16 -23 75 0 65 0 65 -27 64 -17 -1 -21 -3 -10 -6z"/>
<path d="M2330 15235 c0 -43 4 -75 10 -75 6 0 10 8 10 18 0 31 11 33 32 7 28
-36 43 -31 18 6 -21 29 -21 31 -4 50 9 10 14 22 10 26 -4 4 -18 -6 -31 -22
l-24 -30 -1 48 c0 26 -4 47 -10 47 -6 0 -10 -32 -10 -75z"/>
<path d="M3093 15303 c13 -4 17 -15 17 -58 0 -71 7 -85 39 -84 25 0 25 0 4 9
-21 8 -23 16 -23 75 0 65 0 65 -27 64 -17 -1 -21 -3 -10 -6z"/>
<path d="M3860 15215 c0 -57 4 -95 10 -95 6 0 10 38 10 95 0 57 -4 95 -10 95
-6 0 -10 -38 -10 -95z"/>
<path d="M4463 15235 c-1 -44 1 -73 4 -65 2 8 7 22 10 30 3 11 10 8 28 -15 13
-16 27 -26 31 -23 3 4 -3 19 -15 34 l-21 27 22 24 c12 12 17 23 11 23 -5 0
-18 -9 -28 -20 -26 -29 -33 -25 -38 23 -2 23 -4 6 -4 -38z"/>
<path d="M5110 15300 c0 -5 5 -10 10 -10 6 0 10 5 10 10 0 6 -4 10 -10 10 -5
0 -10 -4 -10 -10z"/>
<path d="M1200 15230 c0 -40 4 -70 10 -70 6 0 10 11 10 25 0 22 4 25 35 25 19
0 35 5 35 10 0 6 -16 10 -35 10 -31 0 -35 3 -35 25 0 22 4 25 35 25 19 0 35 5
35 10 0 6 -20 10 -45 10 l-45 0 0 -70z"/>
<path d="M1970 15285 c0 -8 -6 -15 -12 -15 -10 0 -10 -2 -1 -8 6 -4 13 -28 15
-52 3 -41 6 -45 31 -48 15 -2 27 1 27 6 0 5 -8 9 -17 8 -14 -1 -19 8 -21 41
-3 37 0 42 20 46 l23 4 -22 2 c-13 0 -23 8 -23 16 0 8 -4 15 -10 15 -5 0 -10
-7 -10 -15z"/>
<path d="M2577 15293 c-4 -3 -7 -35 -7 -70 l0 -63 33 0 c43 0 67 26 67 73 0
26 -6 40 -22 51 -23 16 -60 21 -71 9z m62 -27 c7 -8 11 -30 9 -48 -2 -28 -7
-34 -30 -36 -27 -3 -28 -2 -28 47 0 43 3 51 19 51 10 0 24 -6 30 -14z"/>
<path d="M4077 15293 c-11 -10 -8 -133 3 -133 6 0 10 14 10 30 0 19 5 30 14
30 8 0 23 -13 33 -30 9 -16 21 -30 25 -30 12 0 10 8 -7 34 -14 21 -14 24 0 36
21 17 19 47 -4 60 -22 11 -64 13 -74 3z m70 -29 c7 -18 -14 -35 -37 -31 -8 1
-16 12 -18 25 -3 18 1 22 23 22 14 0 28 -7 32 -16z"/>
<path d="M4702 15228 l1 -73 6 55 6 55 12 -32 c7 -18 15 -33 18 -33 3 0 11 15
18 33 l12 32 6 -55 6 -55 1 73 c2 79 -10 93 -29 35 l-12 -37 -14 37 c-9 20
-19 37 -24 37 -5 0 -8 -33 -7 -72z"/>
<path d="M5460 15231 l0 -71 40 0 c22 0 40 5 40 10 0 6 -13 10 -30 10 -30 0
-30 1 -30 54 0 30 -4 58 -10 61 -6 4 -10 -20 -10 -64z"/>
<path d="M1333 15220 l2 -55 38 0 37 -1 -1 56 c-1 53 -2 53 -8 15 -8 -48 -17
-65 -36 -65 -9 0 -17 15 -20 38 -11 66 -13 68 -12 12z"/>
<path d="M1837 15264 c-18 -18 -5 -43 28 -54 19 -6 35 -16 35 -21 0 -17 -32
-23 -52 -10 -16 10 -19 10 -16 -1 3 -7 19 -13 39 -13 28 0 35 4 37 23 3 18 -3
25 -27 33 -17 6 -31 17 -31 25 0 17 31 18 49 2 11 -11 13 -10 9 2 -5 16 -59
26 -71 14z"/>
<path d="M2085 15259 c-4 -6 -4 -13 0 -17 3 -3 10 0 15 7 8 14 40 9 40 -7 0
-4 -15 -12 -32 -17 -26 -8 -33 -15 -33 -35 0 -24 3 -25 55 -26 30 -1 49 1 43
3 -7 3 -13 20 -13 38 0 18 -3 40 -6 49 -7 18 -59 22 -69 5z m55 -58 c0 -14
-28 -33 -40 -26 -20 12 -10 35 15 35 14 0 25 -4 25 -9z"/>
<path d="M2212 15258 c-7 -7 -12 -26 -12 -43 0 -17 5 -36 12 -43 17 -17 53
-15 68 3 15 18 7 19 -20 3 -25 -16 -42 0 -42 37 0 37 17 53 42 37 27 -16 35
-15 20 3 -15 18 -51 20 -68 3z"/>
<path d="M2712 15258 c-7 -7 -12 -26 -12 -43 0 -36 15 -55 45 -55 25 0 52 16
42 26 -3 4 -13 1 -22 -6 -18 -15 -45 -6 -45 15 0 11 10 15 35 15 27 0 35 4 35
18 0 24 -19 42 -45 42 -12 0 -26 -5 -33 -12z m56 -15 c2 -8 -6 -13 -22 -13
-25 0 -33 10 -19 24 10 10 36 3 41 -11z"/>
<path d="M2820 15261 c0 -19 40 -101 49 -101 10 0 51 83 51 101 0 24 -18 5
-30 -31 -7 -22 -16 -40 -20 -40 -4 0 -13 18 -20 40 -12 36 -30 55 -30 31z"/>
<path d="M2962 15258 c-7 -7 -12 -26 -12 -43 0 -36 15 -55 45 -55 25 0 52 16
42 26 -3 4 -13 1 -22 -6 -18 -15 -45 -6 -45 15 0 11 10 15 35 15 27 0 35 4 35
18 0 24 -19 42 -45 42 -12 0 -26 -5 -33 -12z m56 -15 c2 -8 -6 -13 -22 -13
-25 0 -33 10 -19 24 10 10 36 3 41 -11z"/>
<path d="M3212 15258 c-7 -7 -12 -26 -12 -43 0 -36 15 -55 45 -55 30 0 45 19
45 55 0 36 -15 55 -45 55 -12 0 -26 -5 -33 -12z m53 -43 c0 -33 -4 -40 -19
-40 -23 0 -36 33 -25 63 15 40 44 24 44 -23z"/>
<path d="M3331 15190 c1 -41 4 -63 6 -49 3 22 8 25 33 21 24 -3 32 1 42 22 8
19 9 35 2 54 -8 23 -15 27 -47 27 l-37 1 1 -76z m62 48 c14 -22 0 -70 -20 -66
-21 4 -32 38 -22 66 10 25 27 25 42 0z"/>
<path d="M3462 15258 c-7 -7 -12 -26 -12 -43 0 -36 15 -55 45 -55 25 0 52 16
42 26 -3 4 -13 1 -22 -6 -18 -15 -45 -6 -45 15 0 11 10 15 35 15 27 0 35 4 35
18 0 24 -19 42 -45 42 -12 0 -26 -5 -33 -12z m56 -15 c2 -8 -6 -13 -22 -13
-25 0 -33 10 -19 24 10 10 36 3 41 -11z"/>
<path d="M3584 15254 c3 -9 6 -33 6 -55 0 -21 5 -39 10 -39 6 0 10 18 10 40 0
28 5 42 19 49 10 6 21 7 25 4 3 -3 6 -1 6 5 0 16 -33 15 -48 0 -9 -9 -12 -9
-12 0 0 7 -5 12 -11 12 -6 0 -8 -7 -5 -16z"/>
<path d="M4212 15258 c-7 -7 -12 -26 -12 -43 0 -36 15 -55 45 -55 30 0 45 19
45 55 0 36 -15 55 -45 55 -12 0 -26 -5 -33 -12z m53 -43 c0 -33 -4 -40 -19
-40 -23 0 -36 33 -25 63 15 40 44 24 44 -23z"/>
<path d="M4328 15245 c-18 -40 0 -79 38 -83 19 -2 36 3 44 12 10 13 10 16 -2
16 -8 0 -19 -5 -26 -12 -16 -16 -42 7 -42 37 0 32 25 51 45 35 17 -14 31 -8
20 9 -3 6 -20 11 -36 11 -22 0 -32 -7 -41 -25z"/>
<path d="M4833 15220 l2 -55 38 0 37 -1 -1 56 c-1 53 -2 53 -8 15 -8 -48 -17
-65 -36 -65 -9 0 -17 15 -20 38 -11 66 -13 68 -12 12z"/>
<path d="M4960 15256 c-15 -20 2 -46 31 -46 23 0 34 -19 20 -33 -9 -9 -17 -8
-32 1 -22 14 -35 10 -24 -7 7 -13 54 -14 73 -2 23 14 9 45 -26 55 -17 5 -32
13 -32 18 0 16 30 20 47 7 14 -12 16 -12 11 1 -6 21 -52 24 -68 6z"/>
<path d="M5093 15263 c13 -3 17 -15 17 -48 0 -37 -3 -44 -22 -48 -13 -2 2 -5
32 -5 42 -1 50 1 33 8 -19 8 -23 17 -23 55 0 43 -1 45 -27 44 -17 -1 -21 -3
-10 -6z"/>
<path d="M5212 15258 c-7 -7 -12 -26 -12 -43 0 -17 5 -36 12 -43 17 -17 53
-15 68 3 15 18 7 19 -20 3 -25 -16 -42 0 -42 37 0 37 17 53 42 37 27 -16 35
-15 20 3 -15 18 -51 20 -68 3z"/>
<path d="M5578 15245 c-8 -18 -9 -35 -2 -53 8 -22 15 -27 44 -27 29 0 36 5 44
27 15 42 -6 78 -44 78 -23 0 -33 -6 -42 -25z m60 3 c30 -30 -1 -94 -33 -68
-25 20 -13 80 15 80 3 0 11 -5 18 -12z"/>
<path d="M5710 15221 c11 -29 20 -54 20 -56 0 -3 7 -5 15 -5 8 0 15 2 15 5 0
2 9 27 20 56 13 31 16 49 9 47 -7 -2 -19 -24 -29 -48 l-17 -44 -15 44 c-8 24
-20 46 -26 48 -8 2 -5 -14 8 -47z"/>
<path d="M5828 15245 c-8 -18 -9 -35 -2 -53 8 -22 16 -27 43 -27 20 0 36 6 39
13 3 11 0 11 -16 1 -17 -10 -23 -10 -36 0 -26 22 -19 31 24 31 22 0 40 5 40
11 0 51 -71 69 -92 24z m62 0 c11 -13 8 -15 -20 -15 -28 0 -31 2 -20 15 7 8
16 15 20 15 4 0 13 -7 20 -15z"/>
<path d="M5960 15215 c0 -65 16 -74 22 -12 5 46 1 67 -13 67 -5 0 -9 -25 -9
-55z"/>
<path d="M5990 15261 c0 -5 11 -8 25 -8 14 0 25 3 25 8 0 5 -11 9 -25 9 -14 0
-25 -4 -25 -9z"/>
</g>
</svg>
